<svg width="140" height="40" viewBox="0 0 140 40" fill="none" xmlns="http://www.w3.org/2000/svg">
<g clip-path="url(#clip0_68_6428)">
<mask id="mask0_68_6428" style="mask-type:luminance" maskUnits="userSpaceOnUse" x="0" y="0" width="140" height="40">
<path d="M139.241 0H0V40H139.241V0Z" fill="white"/>
</mask>
<g mask="url(#mask0_68_6428)">
<path d="M5.17621 5.33385L10.8151 5.33404V17.1969H18.5014L18.5012 5.33404L24.1367 5.33385V27.8771H18.5014V22.8032H10.8151V34.6663H5.17659L5.17621 5.33385Z" fill="#AA3232"/>
<path d="M17.4499 5.33398H11.8115V16.2052H17.4499V5.33398Z" fill="#3C3C3C"/>
<path d="M28.8794 34.6662H11.8115V23.7952L17.4499 23.7794V29.0317H25.1329C25.1329 29.0317 28.8794 29.2122 28.8794 26.4058C28.8794 23.5992 25.1329 23.7794 25.1329 23.7794V16.205C25.1329 16.205 28.8794 16.4488 28.8794 13.5786C28.8794 10.9477 25.1329 10.9525 25.1329 10.9525V5.3338C25.1329 5.3338 34.4527 5.11047 34.4527 13.5786C34.4527 18.5999 30.673 19.9999 30.673 19.9999C30.673 19.9999 35.3497 21.0874 35.3497 26.4056C35.3497 34.8643 28.8794 34.6662 28.8794 34.6662Z" fill="#3C3C3C"/>
</g>
<mask id="mask1_68_6428" style="mask-type:luminance" maskUnits="userSpaceOnUse" x="0" y="0" width="140" height="40">
<path d="M139.241 0H0V40H139.241V0Z" fill="white"/>
</mask>
<g mask="url(#mask1_68_6428)">
<path d="M54.9148 29.0182V21.2315H48.8134V29.0182H45.4327V11.1319H48.8134V18.3165H54.9148V11.1319H58.2952V29.0182H54.9148Z" fill="#AA3232"/>
<path d="M73.6722 20.9988C73.6722 21.227 73.6656 21.5237 73.6516 21.8883C73.6382 22.2533 73.6172 22.5954 73.5898 22.9147H64.4104C64.4104 23.526 64.5041 24.0641 64.6919 24.5294C64.8797 24.9948 65.1455 25.3849 65.489 25.6997C65.8327 26.0144 66.2449 26.2537 66.7257 26.418C67.2069 26.5822 67.7405 26.6645 68.3269 26.6645C69.0048 26.6645 69.7308 26.6124 70.505 26.5072C71.2791 26.4024 72.0829 26.2312 72.9167 25.9939V28.6489C72.5592 28.7491 72.1698 28.8404 71.7485 28.9224C71.3272 29.0047 70.8965 29.0773 70.4568 29.1414C70.017 29.2048 69.5725 29.253 69.1238 29.285C68.6749 29.317 68.2394 29.3332 67.8183 29.3332C66.7554 29.3332 65.8028 29.1823 64.96 28.8814C64.117 28.5802 63.4025 28.1356 62.8163 27.5471C62.2298 26.9587 61.781 26.2312 61.4694 25.3644C61.1579 24.4976 61.0022 23.4942 61.0022 22.3536C61.0022 21.2225 61.1579 20.1937 61.4694 19.2676C61.7808 18.3419 62.2206 17.5482 62.7887 16.8864C63.3566 16.2251 64.046 15.7143 64.8567 15.3538C65.6676 14.9935 66.5721 14.8132 67.5706 14.8132C68.56 14.8132 69.4348 14.9662 70.1954 15.2718C70.9558 15.5775 71.5925 16.004 72.1054 16.5513C72.6185 17.0989 73.0075 17.7512 73.2736 18.5083C73.5394 19.2656 73.6722 20.0957 73.6722 20.9988ZM70.2643 20.5199C70.2734 19.9724 70.2046 19.4959 70.0582 19.0898C69.9116 18.684 69.7123 18.3487 69.4604 18.084C69.2084 17.8195 68.9152 17.6234 68.581 17.4957C68.2464 17.3679 67.8869 17.3039 67.5022 17.3039C66.6592 17.3039 65.9678 17.5845 65.4272 18.1455C64.8867 18.7066 64.5661 19.4983 64.4654 20.5199H70.2643Z" fill="#AA3232"/>
<path d="M88.0714 28.8814C87.4669 29.0184 86.8574 29.1277 86.2438 29.2097C85.6299 29.292 85.0482 29.3332 84.4986 29.3332C83.5825 29.3332 82.7923 29.237 82.128 29.0457C81.4637 28.8539 80.9141 28.5623 80.4789 28.1698C80.0438 27.7779 79.7233 27.2782 79.517 26.6712C79.3111 26.0647 79.2078 25.342 79.2078 24.5023V17.7145H75.4564V15.1143H79.2078V11.556L82.6434 10.6665V15.1141H88.0712V17.7143H82.6434V24.2556C82.6434 25.0494 82.8266 25.6494 83.193 26.0552C83.5591 26.4611 84.1731 26.6641 85.0344 26.6641C85.584 26.6641 86.12 26.6186 86.6422 26.5271C87.1644 26.4362 87.6405 26.3311 88.0712 26.2125V28.8814H88.0714Z" fill="#AA3232"/>
<path d="M91.6242 29.0182V11.1319H97.4233C99.466 11.1319 100.998 11.4877 102.02 12.1993C103.041 12.9109 103.552 13.9875 103.552 15.429C103.552 15.8761 103.499 16.3116 103.394 16.7359C103.288 17.1602 103.126 17.5502 102.906 17.906C102.686 18.2618 102.411 18.5766 102.082 18.8503C101.752 19.1241 101.362 19.3386 100.914 19.4934C101.362 19.5666 101.791 19.7103 102.198 19.9246C102.606 20.1391 102.963 20.4172 103.27 20.7595C103.577 21.1017 103.82 21.5053 103.999 21.9708C104.177 22.436 104.266 22.9561 104.266 23.5309C104.266 25.3555 103.653 26.7262 102.425 27.6432C101.197 28.5601 99.4246 29.0186 97.107 29.0186H91.6242V29.0182ZM100.034 16.0176C100.034 15.6802 99.9793 15.3743 99.8694 15.1005C99.7594 14.8268 99.5829 14.5942 99.3402 14.4027C99.0974 14.211 98.7859 14.0629 98.4057 13.9579C98.0256 13.8531 97.5654 13.8004 97.0249 13.8004H94.9773V18.5356H97.0249C97.5745 18.5356 98.0392 18.4695 98.4197 18.3371C98.7998 18.205 99.1112 18.0223 99.3542 17.7895C99.5967 17.557 99.7707 17.29 99.8763 16.989C99.9816 16.6881 100.034 16.3643 100.034 16.0176ZM97.3409 26.2677C97.8813 26.2677 98.3553 26.199 98.763 26.062C99.1707 25.9252 99.5121 25.7363 99.7868 25.4942C100.062 25.2526 100.27 24.9672 100.412 24.6387C100.554 24.3104 100.625 23.9593 100.625 23.5852C100.625 22.8099 100.334 22.2029 99.7526 21.7651C99.1709 21.3273 98.2799 21.1083 97.0798 21.1083H94.9773V26.2677H97.3409Z" fill="#3C3C3C"/>
<path d="M119.809 21.9568C119.809 23.0517 119.653 24.053 119.341 24.9606C119.03 25.8686 118.581 26.6462 117.995 27.2938C117.408 27.9418 116.689 28.4432 115.837 28.7992C114.985 29.155 114.014 29.3332 112.924 29.3332C111.889 29.3332 110.963 29.1823 110.148 28.8814C109.333 28.5802 108.641 28.1311 108.073 27.5335C107.505 26.936 107.07 26.1879 106.768 25.2891C106.466 24.3907 106.314 23.3439 106.314 22.1484C106.314 21.0447 106.473 20.0409 106.788 19.1376C107.105 18.2345 107.558 17.4637 108.149 16.8249C108.74 16.1865 109.461 15.6915 110.313 15.3401C111.165 14.989 112.127 14.8132 113.199 14.8132C114.243 14.8132 115.173 14.9662 115.989 15.2718C116.804 15.5775 117.496 16.0313 118.064 16.6334C118.631 17.2355 119.064 17.9815 119.362 18.871C119.66 19.7604 119.809 20.7892 119.809 21.9568ZM116.318 22.039C116.318 20.5977 116.046 19.5141 115.501 18.7888C114.955 18.0635 114.152 17.7007 113.089 17.7007C112.502 17.7007 112.003 17.8149 111.591 18.0428C111.179 18.271 110.84 18.5833 110.574 18.9801C110.308 19.3769 110.114 19.8402 109.99 20.3692C109.866 20.8985 109.805 21.4641 109.805 22.0663C109.805 23.5168 110.098 24.6095 110.684 25.3439C111.27 26.0782 112.072 26.4453 113.089 26.4453C113.647 26.4453 114.133 26.3337 114.545 26.1102C114.958 25.8867 115.292 25.5764 115.549 25.1796C115.805 24.7828 115.997 24.3153 116.126 23.777C116.254 23.2389 116.318 22.6596 116.318 22.039Z" fill="#3C3C3C"/>
<path d="M134.063 28.8814C133.459 29.0184 132.849 29.1277 132.236 29.2097C131.622 29.292 131.04 29.3332 130.491 29.3332C129.574 29.3332 128.784 29.237 128.12 29.0457C127.456 28.8539 126.906 28.5623 126.471 28.1698C126.036 27.7779 125.715 27.2782 125.509 26.6712C125.303 26.0647 125.2 25.342 125.2 24.5023V17.7145H121.448V15.1143H125.2V11.556L128.635 10.6665V15.1141H134.063V17.7143H128.635V24.2556C128.635 25.0494 128.819 25.6494 129.185 26.0552C129.551 26.4611 130.165 26.6641 131.026 26.6641C131.576 26.6641 132.112 26.6186 132.634 26.5271C133.156 26.4362 133.632 26.3311 134.063 26.2125L134.063 28.8814Z" fill="#3C3C3C"/>
</g>
</g>
<defs>
<clipPath id="clip0_68_6428">
<rect width="139.241" height="40" fill="white"/>
</clipPath>
</defs>
</svg>
