<?xml version="1.0" standalone="no"?>
<!DOCTYPE svg PUBLIC "-//W3C//DTD SVG 20010904//EN"
 "http://www.w3.org/TR/2001/REC-SVG-20010904/DTD/svg10.dtd">
<svg version="1.0" xmlns="http://www.w3.org/2000/svg"
 width="1024.000000pt" height="1024.000000pt" viewBox="0 0 1024.000000 1024.000000"
 preserveAspectRatio="xMidYMid meet">
<metadata>
Created by potrace 1.14, written by Peter Selinger 2001-2017
</metadata>
<g transform="translate(0.000000,1024.000000) scale(0.100000,-0.100000)"
fill="#000000" stroke="none">
<path d="M3538 7592 l-1388 -2 0 -203 c0 -111 5 -242 10 -292 5 -49 12 -358
15 -685 3 -327 8 -608 10 -625 3 -16 9 -77 15 -135 6 -66 21 -140 41 -200 30
-93 35 -116 60 -287 16 -111 9 -138 -55 -212 -85 -98 -89 -112 -75 -234 9 -76
10 -218 3 -552 -4 -247 -8 -481 -7 -520 2 -202 -21 -1142 -28 -1156 -9 -18
-141 -18 3836 -17 974 1 1878 1 2010 1 l240 0 3 1151 4 1152 -70 51 c-49 36
-101 89 -166 170 l-95 118 117 115 c65 63 139 134 166 157 l49 42 -9 693 c-9
700 -8 1404 1 1446 l5 22 -892 0 c-491 1 -1235 2 -1653 3 -418 1 -1384 1
-2147 -1z m4423 -336 c-1 -50 -5 -93 -8 -96 -10 -11 -5257 -10 -5403 1 -79 6
-145 11 -146 12 -1 1 -4 40 -6 87 l-4 86 2785 1 2786 1 -4 -92z m-1984 -438
c-3 -8 -6 -5 -6 6 -1 11 2 17 5 13 3 -3 4 -12 1 -19z m-2889 5 c-443 -3 -477
-4 -481 -21 -4 -13 -5 -11 -6 6 l-1 22 483 -2 482 -3 -477 -2z m649 0 c-20 -2
-52 -2 -70 0 -17 2 0 4 38 4 39 0 53 -2 32 -4z m1241 -410 l-3 -418 -2 413 -3
412 -230 0 -230 0 0 -1795 0 -1795 235 0 234 0 4 105 3 105 0 -107 -1 -108
-242 -3 -243 -2 0 1798 c0 989 3 1802 7 1805 3 4 111 7 240 7 l233 0 -2 -417z
m490 378 c-12 -22 -24 -38 -26 -36 -5 4 37 75 44 75 3 0 -6 -18 -18 -39z m390
32 c-60 -2 -156 -2 -215 0 -60 1 -11 3 107 3 118 0 167 -2 108 -3z m1065 0
c-134 -2 -352 -2 -485 0 -134 1 -25 2 242 2 267 0 376 -1 243 -2z m-3078 -13
c3 -6 -1 -7 -9 -4 -18 7 -21 14 -7 14 6 0 13 -4 16 -10z m3720 -92 l100 -103
-105 100 c-57 55 -106 101 -109 103 -2 1 0 2 5 2 5 0 54 -46 109 -102z m-1609
45 c-8 -15 -15 -25 -16 -21 0 12 23 58 27 54 3 -2 -2 -17 -11 -33z m-1941
-113 c71 -71 127 -130 125 -130 -3 0 -64 59 -135 130 -71 72 -127 130 -125
130 3 0 64 -58 135 -130z m1916 53 c-12 -20 -14 -14 -5 12 4 9 9 14 11 11 3
-2 0 -13 -6 -23z m-3334 -210 c-2 -37 -3 -9 -3 62 0 72 1 102 3 68 2 -34 2
-93 0 -130z m3314 160 c-12 -20 -14 -14 -5 12 4 9 9 14 11 11 3 -2 0 -13 -6
-23z m-20 -50 c-12 -20 -14 -14 -5 12 4 9 9 14 11 11 3 -2 0 -13 -6 -23z
m-512 -42 c-12 -28 -24 -50 -26 -47 -2 2 6 27 18 55 12 29 23 50 25 48 3 -2
-5 -27 -17 -56z m492 -8 c-12 -20 -14 -14 -5 12 4 9 9 14 11 11 3 -2 0 -13 -6
-23z m1909 -48 c30 -30 52 -55 49 -55 -2 0 -29 25 -59 55 -30 30 -52 55 -49
55 2 0 29 -25 59 -55z m-1929 -6 c-5 -13 -10 -19 -10 -12 -1 15 10 45 15 40 3
-2 0 -15 -5 -28z m-1690 -6 c13 -16 12 -17 -3 -4 -10 7 -18 15 -18 17 0 8 8 3
21 -13z m1176 -45 c-3 -8 -6 -5 -6 6 -1 11 2 17 5 13 3 -3 4 -12 1 -19z
m-1120 -580 c-1 -106 -2 -20 -2 192 0 212 1 298 2 193 2 -106 2 -280 0 -385z
m3620 505 c-2 -16 -4 -5 -4 22 0 28 2 40 4 28 2 -13 2 -35 0 -50z m-2536 -19
c-17 -38 -30 -63 -31 -55 0 16 51 133 57 128 2 -2 -10 -35 -26 -73z m498 -13
c-6 -18 -13 -30 -15 -28 -2 2 1 18 7 36 6 18 13 30 15 28 2 -2 -1 -18 -7 -36z
m417 -34 c9 -3 8 -4 -3 -3 -12 1 -18 10 -19 26 -1 21 0 21 3 3 2 -12 11 -24
19 -26z m-2573 6 c-24 -2 -62 -2 -85 0 -24 2 -5 4 42 4 47 0 66 -2 43 -4z m74
-550 c-1 -104 -2 -19 -2 187 0 206 1 291 2 188 2 -104 2 -272 0 -375z m2931
550 c-10 -2 -26 -2 -35 0 -10 3 -2 5 17 5 19 0 27 -2 18 -5z m555 0 c-46 -2
-120 -2 -165 0 -46 1 -9 3 82 3 91 0 128 -2 83 -3z m-4315 -10 c-54 -2 -142
-2 -195 0 -54 1 -10 3 97 3 107 0 151 -2 98 -3z m3540 0 c-10 -2 -26 -2 -35 0
-10 3 -2 5 17 5 19 0 27 -2 18 -5z m899 -225 c-1 -46 -3 -11 -3 77 0 88 2 125
3 83 2 -42 2 -114 0 -160z m-1558 183 c-6 -18 -13 -30 -15 -28 -2 2 1 18 7 36
6 18 13 30 15 28 2 -2 -1 -18 -7 -36z m-505 -15 c-3 -15 -8 -25 -11 -23 -2 3
-1 17 3 31 3 15 8 25 11 23 2 -3 1 -17 -3 -31z m475 -65 c-6 -18 -13 -30 -15
-28 -2 2 1 18 7 36 6 18 13 30 15 28 2 -2 -1 -18 -7 -36z m-519 -52 c-16 -35
-30 -59 -30 -54 0 15 55 134 58 125 1 -4 -11 -36 -28 -71z m491 -16 c-12 -20
-14 -14 -5 12 4 9 9 14 11 11 3 -2 0 -13 -6 -23z m-32 -92 c-12 -34 -23 -60
-25 -58 -2 2 6 32 17 66 12 34 23 60 25 58 2 -2 -6 -32 -17 -66z m-495 5 c-3
-15 -8 -25 -11 -23 -2 3 -1 17 3 31 3 15 8 25 11 23 2 -3 1 -17 -3 -31z m1503
-173 c-2 -32 -3 -8 -3 52 0 61 1 87 3 58 2 -29 2 -78 0 -110z m-4069 140 c-17
-4 -18 -29 -20 -311 l-3 -307 -2 300 c-2 165 -1 305 2 312 2 7 12 12 22 12 17
-1 17 -2 1 -6z m460 -175 l-3 -183 -2 177 -3 177 -138 4 -137 3 143 2 142 2
-2 -182z m3370 175 c-43 -2 -113 -2 -155 0 -43 1 -8 3 77 3 85 0 120 -2 78 -3z
m1379 -160 c-2 -32 -3 -6 -3 57 0 63 1 89 3 58 2 -32 2 -84 0 -115z m-2673
105 c-9 -18 -27 -62 -40 -98 -12 -36 -23 -60 -23 -53 -1 11 26 88 60 171 8 18
15 28 17 23 2 -5 -4 -24 -14 -43z m-187 -65 c-2 -21 -4 -6 -4 32 0 39 2 55 4
38 2 -18 2 -50 0 -70z m664 20 c-12 -20 -14 -14 -5 12 4 9 9 14 11 11 3 -2 0
-13 -6 -23z m-37 -102 c-15 -39 -28 -70 -30 -68 -2 2 8 36 23 76 14 39 28 70
30 68 2 -3 -8 -37 -23 -76z m-607 -13 c-3 -7 -5 -2 -5 12 0 14 2 19 5 13 2 -7
2 -19 0 -25z m79 -65 c-14 -26 -25 -43 -26 -38 0 13 43 95 48 90 2 -1 -8 -25
-22 -52z m2771 -216 c-1 -45 -3 -5 -3 88 0 94 2 130 3 82 2 -48 2 -125 0 -170z
m-2860 110 c-2 -23 -3 -1 -3 48 0 50 1 68 3 42 2 -26 2 -67 0 -90z m1220 -304
c-1 -82 -3 -15 -3 147 0 162 2 229 3 148 2 -82 2 -214 0 -295z m-646 380 c-12
-20 -14 -14 -5 12 4 9 9 14 11 11 3 -2 0 -13 -6 -23z m-514 -45 c-3 -8 -6 -5
-6 6 -1 11 2 17 5 13 3 -3 4 -12 1 -19z m478 -63 c-15 -42 -29 -74 -31 -72 -2
2 9 38 24 79 15 42 29 75 31 73 2 -3 -9 -39 -24 -80z m1182 33 c-3 -7 -5 -2
-5 12 0 14 2 19 5 13 2 -7 2 -19 0 -25z m-1670 -10 c-3 -8 -6 -5 -6 6 -1 11 2
17 5 13 3 -3 4 -12 1 -19z m1656 -51 c-4 -9 -66 -70 -138 -137 l-130 -122 133
130 c72 72 132 136 132 143 0 7 3 10 6 6 3 -3 2 -12 -3 -20z m-3606 -19 c-3
-8 -6 -5 -6 6 -1 11 2 17 5 13 3 -3 4 -12 1 -19z m2394 -65 c-12 -20 -14 -14
-5 12 4 9 9 14 11 11 3 -2 0 -13 -6 -23z m-1754 -45 c-2 -13 -4 -3 -4 22 0 25
2 35 4 23 2 -13 2 -33 0 -45z m-697 39 c0 -1 -28 -29 -62 -62 l-63 -60 60 63
c55 58 65 67 65 59z m1207 -49 c-2 -13 -4 -5 -4 17 -1 22 1 32 4 23 2 -10 2
-28 0 -40z m1207 -52 c-14 -42 -28 -75 -30 -73 -2 2 8 38 22 81 14 42 28 75
30 73 2 -2 -8 -38 -22 -81z m1845 -20 c-28 -28 -44 -40 -36 -25 9 14 30 35 47
47 22 16 30 32 31 55 2 32 2 32 6 3 4 -24 -4 -37 -48 -80z m562 47 c-13 -26
-248 -252 -301 -292 -45 -33 -45 -33 5 11 27 23 106 100 175 169 69 69 126
127 128 128 1 0 -2 -7 -7 -16z m-4159 -53 c-24 -33 -44 -50 -57 -49 -17 2 -17
2 3 6 12 2 22 8 22 11 0 8 59 82 65 82 2 0 -12 -22 -33 -50z m539 11 c-10 -18
-96 -96 -216 -196 -32 -28 -56 -44 -52 -38 5 7 63 60 131 118 68 57 126 111
130 120 3 8 8 15 11 15 3 0 1 -8 -4 -19z m-1331 -4 c0 -2 -12 -14 -27 -28
l-28 -24 24 28 c23 25 31 32 31 24z m-283 -140 c-2 -23 -3 -1 -3 48 0 50 1 68
3 42 2 -26 2 -67 0 -90z m891 96 c-42 -2 -114 -2 -160 0 -46 1 -11 3 77 3 88
0 125 -2 83 -3z m3359 1 c-3 -3 -12 -4 -19 -1 -8 3 -5 6 6 6 11 1 17 -2 13 -5z
m301 -1 c-32 -2 -86 -2 -120 0 -35 2 -9 3 57 3 66 0 94 -1 63 -3z m-4328 -7
c0 -2 -8 -10 -17 -17 -16 -13 -17 -12 -4 4 13 16 21 21 21 13z m399 0 c-2 -2
-15 -9 -29 -15 -24 -11 -24 -11 -6 3 16 13 49 24 35 12z m3181 1 c0 -2 -10
-12 -22 -23 l-23 -19 19 23 c18 21 26 27 26 19z m384 -15 c-17 -9 -62 -43
-100 -74 -231 -192 -460 -368 -479 -368 -12 0 -15 -29 -18 -157 l-3 -158 -2
158 -2 157 25 10 c34 13 163 113 484 373 69 56 100 76 116 76 6 0 -4 -8 -21
-17z m-3624 -15 c0 -2 -24 -23 -52 -46 l-53 -43 50 46 c48 44 55 50 55 43z
m3190 -11 c0 -2 -8 -10 -17 -17 -16 -13 -17 -12 -4 4 13 16 21 21 21 13z
m-981 -45 c-6 -18 -13 -30 -15 -28 -2 2 1 18 7 36 6 18 13 30 15 28 2 -2 -1
-18 -7 -36z m-2327 -48 c-9 -4 -207 -151 -289 -216 -7 -5 -13 -7 -13 -5 0 13
303 239 310 231 3 -3 -1 -8 -8 -10z m2305 -15 c-3 -8 -6 -5 -6 6 -1 11 2 17 5
13 3 -3 4 -12 1 -19z m22 -68 c0 -9 -4 -8 -9 5 -5 11 -9 27 -9 35 0 9 4 8 9
-5 5 -11 9 -27 9 -35z m-1439 27 c0 -2 -10 -12 -22 -23 l-23 -19 19 23 c18 21
26 27 26 19z m125 -187 c77 -77 137 -140 135 -140 -3 0 -68 63 -145 140 -77
77 -137 140 -135 140 3 0 68 -63 145 -140z m1334 90 c0 -9 -4 -8 -9 5 -5 11
-9 27 -9 35 0 9 4 8 9 -5 5 -11 9 -27 9 -35z m2167 8 l29 -33 -32 29 c-31 28
-38 36 -30 36 2 0 16 -15 33 -32z m-2137 -108 c0 -9 -4 -8 -9 5 -5 11 -9 27
-9 35 0 9 4 8 9 -5 5 -11 9 -27 9 -35z m2296 -60 c60 -60 107 -110 105 -110
-3 0 -55 50 -115 110 -60 61 -107 110 -105 110 3 0 55 -49 115 -110z m-4985
86 c0 -2 -17 -16 -37 -31 l-38 -26 35 30 c34 31 40 35 40 27z m-94 -71 c-11
-8 -26 -15 -33 -15 -10 0 -13 -60 -16 -282 l-2 -283 -3 282 -2 283 33 14 c42
19 46 19 23 1z m2848 -145 c5 -20 3 -19 -8 5 -7 17 -16 41 -20 55 -5 20 -3 19
8 -5 7 -16 16 -41 20 -55z m-1809 18 l40 -43 -40 35 -40 35 -282 -3 -282 -3
-4 -102 -3 -102 -2 107 -2 108 278 3 c152 1 282 3 287 5 6 1 29 -17 50 -40z
m3495 28 c14 -2 -91 -3 -233 -2 -251 1 -257 1 -258 -19 0 -11 -3 -14 -6 -7
-14 36 -1 38 238 34 129 -1 245 -4 259 -6z m150 -83 c0 -8 -9 0 -50 45 l-45
47 48 -45 c26 -24 47 -45 47 -47z m-3103 -130 c-2 -38 -3 -7 -3 67 0 74 1 105
3 68 2 -38 2 -98 0 -135z m3610 -591 c-1 -141 -2 -25 -2 258 0 283 1 399 2
257 2 -141 2 -373 0 -515z m-4110 696 c-3 -7 -5 -2 -5 12 0 14 2 19 5 13 2 -7
2 -19 0 -25z m1801 -43 c0 -5 -6 4 -13 20 -8 17 -14 37 -14 45 0 8 7 -1 14
-20 7 -19 13 -39 13 -45z m1795 -846 c-5 -5 -6 193 -3 439 l5 447 3 -439 c1
-242 -1 -443 -5 -447z m-1759 751 c5 -20 3 -19 -8 5 -7 17 -16 41 -20 55 -5
20 -3 19 8 -5 7 -16 16 -41 20 -55z m-509 50 c3 -5 1 -10 -4 -10 -6 0 -11 5
-11 10 0 6 2 10 4 10 3 0 8 -4 11 -10z m-22 -35 c-3 -9 -8 -14 -10 -11 -3 3
-2 9 2 15 9 16 15 13 8 -4z m-1935 -788 c13 -4 11 -5 -5 -6 l-23 -1 2 398 3
397 2 -392 c3 -362 5 -392 21 -396z m629 736 c-3 -10 -5 -2 -5 17 0 19 2 27 5
18 2 -10 2 -26 0 -35z m1281 5 c-7 -13 -15 -43 -19 -68 l-6 -45 -2 38 c-1 34
21 97 35 97 2 0 -1 -10 -8 -22z m92 -33 c0 -5 -5 -3 -10 5 -5 8 -10 20 -10 25
0 6 5 3 10 -5 5 -8 10 -19 10 -25z m1597 -387 c-1 -79 -3 -15 -3 142 0 157 2
221 3 143 2 -79 2 -207 0 -285z m-1573 322 c5 -17 4 -20 -2 -10 -5 8 -13 26
-16 40 -5 17 -4 20 2 10 5 -8 13 -26 16 -40z m500 -40 c5 -20 3 -19 -8 5 -7
17 -16 41 -20 55 -5 20 -3 19 8 -5 7 -16 16 -41 20 -55z m-1897 -122 c-2 -35
-3 -7 -3 62 0 69 1 97 3 63 2 -35 2 -91 0 -125z m1432 57 c0 -5 -4 -3 -9 5 -5
8 -9 22 -9 30 0 16 17 -16 18 -35z m547 -192 c-5 -5 -56 147 -55 162 0 6 14
-28 30 -74 16 -47 27 -86 25 -88z m-497 55 c12 -34 21 -67 20 -72 0 -6 -8 12
-18 39 -27 76 -33 95 -28 95 3 0 15 -28 26 -62z m-992 -10 c-3 -7 -5 -2 -5 12
0 14 2 19 5 13 2 -7 2 -19 0 -25z m0 -140 c-2 -18 -4 -4 -4 32 0 36 2 50 4 33
2 -18 2 -48 0 -65z m1032 22 c0 -10 -3 -8 -9 5 -12 27 -12 43 0 25 5 -8 9 -22
9 -30z m46 -136 c4 -25 3 -24 -8 6 -8 19 -17 46 -20 60 -5 19 -3 17 8 -6 7
-17 16 -44 20 -60z m-2698 -372 c-1 -81 -3 -12 -3 153 0 165 2 231 3 147 2
-84 2 -219 0 -300z m3182 386 c11 -34 19 -63 17 -65 -2 -3 -12 20 -21 49 -10
29 -20 59 -23 66 -2 6 -2 12 1 12 3 0 15 -28 26 -62z m-792 -190 c-2 -35 -3
-7 -3 62 0 69 1 97 3 63 2 -35 2 -91 0 -125z m351 37 c0 -5 -6 4 -13 20 -8 17
-14 37 -14 45 0 8 7 -1 14 -20 7 -19 13 -39 13 -45z m-1638 25 c-23 -18 -42
-19 -245 -17 l-220 2 221 2 c199 3 223 5 240 22 10 10 21 16 24 14 3 -2 -6
-13 -20 -23z m3498 -17 c-42 -2 -114 -2 -160 0 -46 1 -11 3 77 3 88 0 125 -2
83 -3z m-2971 -80 c-2 -16 -4 -3 -4 27 0 30 2 43 4 28 2 -16 2 -40 0 -55z
m1638 -29 c4 -25 3 -24 -8 6 -8 19 -17 46 -20 60 -5 19 -3 17 8 -6 7 -17 16
-44 20 -60z m703 -407 l357 -2 -362 -3 -363 -2 2 253 3 252 2 -247 3 -248 358
-3z m-2408 328 c-41 -41 -77 -75 -79 -75 -3 0 28 34 69 75 41 41 77 75 79 75
3 0 -28 -34 -69 -75z m3620 -10 c-24 -25 -46 -45 -49 -45 -3 0 15 20 39 45 24
25 46 45 49 45 3 0 -15 -20 -39 -45z m-2350 -70 c0 -5 -5 -3 -10 5 -5 8 -10
20 -10 25 0 6 5 3 10 -5 5 -8 10 -19 10 -25z m498 -40 c0 -5 -6 4 -13 20 -8
17 -14 37 -14 45 0 8 7 -1 14 -20 7 -19 13 -39 13 -45z m1792 62 c0 -1 -46
-47 -102 -102 l-103 -100 100 103 c93 95 105 107 105 99z m-3690 -60 c0 -1
-37 -38 -82 -82 l-83 -80 80 83 c74 76 85 87 85 79z m1458 -142 c0 -5 -6 4
-13 20 -8 17 -14 37 -14 45 0 8 7 -1 14 -20 7 -19 13 -39 13 -45z m502 -30 c0
-5 -5 -3 -10 5 -5 8 -10 20 -10 25 0 6 5 3 10 -5 5 -8 10 -19 10 -25z m1475
-15 c-10 -11 -28 -19 -39 -19 -20 2 -20 2 1 6 12 2 27 11 33 19 7 8 15 14 18
14 3 0 -3 -9 -13 -20z m-3625 -5 c-7 -8 -26 -14 -44 -14 l-31 2 30 4 c17 3 34
9 40 14 15 15 19 10 5 -6z m1910 -15 c153 0 240 4 243 10 3 6 4 5 3 -2 -2 -10
-57 -13 -246 -13 -189 0 -244 3 -246 13 -1 7 0 8 3 2 3 -6 90 -10 243 -10z
m1363 3 c-29 -2 -77 -2 -105 0 -29 2 -6 3 52 3 58 0 81 -1 53 -3z m185 0 c-10
-2 -28 -2 -40 0 -13 2 -5 4 17 4 22 1 32 -1 23 -4z m-3960 -10 c-137 -2 -359
-2 -495 0 -137 1 -25 2 247 2 272 0 384 -1 248 -2z m4571 -322 c5 -7 12 -45
16 -83 3 -39 9 -76 11 -83 4 -10 -507 -13 -2765 -14 l-2771 -1 0 95 0 94 33 4
c17 2 1255 3 2750 3 2289 -1 2719 -3 2726 -15z"/>
</g>
</svg>
